<svg id="visual" viewBox="0 0 675 900" width="675" height="900" xmlns="http://www.w3.org/2000/svg" xmlns:xlink="http://www.w3.org/1999/xlink" version="1.1"><path d="M0 127L28.2 134.5C56.3 142 112.7 157 169 167.5C225.3 178 281.7 184 337.8 181C394 178 450 166 506.2 157C562.3 148 618.7 142 646.8 139L675 136L675 0L646.8 0C618.7 0 562.3 0 506.2 0C450 0 394 0 337.8 0C281.7 0 225.3 0 169 0C112.7 0 56.3 0 28.2 0L0 0Z" fill="#6198ff"></path><path d="M0 415L28.2 427C56.3 439 112.7 463 169 469C225.3 475 281.7 463 337.8 448C394 433 450 415 506.2 418C562.3 421 618.7 445 646.8 457L675 469L675 134L646.8 137C618.7 140 562.3 146 506.2 155C450 164 394 176 337.8 179C281.7 182 225.3 176 169 165.5C112.7 155 56.3 140 28.2 132.5L0 125Z" fill="#2d77ff"></path><path d="M0 784L28.2 763C56.3 742 112.7 700 169 698.5C225.3 697 281.7 736 337.8 754C394 772 450 769 506.2 767.5C562.3 766 618.7 766 646.8 766L675 766L675 467L646.8 455C618.7 443 562.3 419 506.2 416C450 413 394 431 337.8 446C281.7 461 225.3 473 169 467C112.7 461 56.3 437 28.2 425L0 413Z" fill="#005de8"></path><path d="M0 901L28.2 901C56.3 901 112.7 901 169 901C225.3 901 281.7 901 337.8 901C394 901 450 901 506.2 901C562.3 901 618.7 901 646.8 901L675 901L675 764L646.8 764C618.7 764 562.3 764 506.2 765.5C450 767 394 770 337.8 752C281.7 734 225.3 695 169 696.5C112.7 698 56.3 740 28.2 761L0 782Z" fill="#004cbb"></path></svg>